<svg width="1280" height="800" viewBox="0 0 1280 800" fill="none" xmlns="http://www.w3.org/2000/svg">
  <rect width="1280" height="800" rx="40" fill="#F4F7FB"/>
  <rect x="44" y="44" width="1192" height="712" rx="28" fill="#FFFFFF"/>
  <rect x="88" y="96" width="1104" height="96" rx="24" fill="#0F172A"/>
  <rect x="134" y="134" width="210" height="18" rx="9" fill="#F8FAFC"/>
  <rect x="384" y="134" width="154" height="18" rx="9" fill="#FFF4D6"/>
  <rect x="88" y="232" width="350" height="476" rx="24" fill="#F8FAFC"/>
  <rect x="482" y="232" width="350" height="476" rx="24" fill="#FFFDF8"/>
  <rect x="876" y="232" width="316" height="476" rx="24" fill="#F6FBFF"/>
  <rect x="128" y="280" width="270" height="124" rx="18" fill="#FFFFFF"/>
  <rect x="128" y="430" width="270" height="124" rx="18" fill="#E9F2FF"/>
  <rect x="128" y="580" width="220" height="84" rx="18" fill="#E8F7EF"/>
  <rect x="522" y="280" width="270" height="124" rx="18" fill="#FFF4D6"/>
  <rect x="522" y="430" width="270" height="124" rx="18" fill="#FFFFFF"/>
  <rect x="522" y="580" width="220" height="84" rx="18" fill="#E9F2FF"/>
  <rect x="916" y="280" width="236" height="18" rx="9" fill="#0F172A"/>
  <rect x="916" y="332" width="196" height="12" rx="6" fill="#CBD5E1"/>
  <rect x="916" y="390" width="236" height="176" rx="22" fill="#FFFFFF"/>
  <rect x="916" y="596" width="140" height="44" rx="22" fill="#0F172A"/>
  <circle cx="1050" cy="662" r="62" fill="#DDEBFF"/>
</svg>
