<svg width="1280" height="800" viewBox="0 0 1280 800" fill="none" xmlns="http://www.w3.org/2000/svg">
  <rect width="1280" height="800" rx="40" fill="#F8FAFC"/>
  <rect x="40" y="40" width="1200" height="720" rx="28" fill="#FFFFFF" stroke="#E2E8F0" stroke-width="2"/>
  <rect x="64" y="64" width="1152" height="56" rx="14" fill="#0F172A"/>
  <rect x="88" y="82" width="48" height="20" rx="10" fill="#F8FAFC" fill-opacity="0.2"/>
  <rect x="148" y="84" width="200" height="16" rx="8" fill="#F8FAFC"/>
  <rect x="980" y="76" width="200" height="36" rx="18" fill="#FFF4D6"/>
  <!-- toolbar -->
  <rect x="64" y="140" width="1152" height="52" rx="12" fill="#F1F5F9"/>
  <rect x="88" y="156" width="240" height="20" rx="10" fill="#FFFFFF" stroke="#CBD5E1"/>
  <rect x="344" y="158" width="100" height="16" rx="8" fill="#E2E8F0"/>
  <rect x="460" y="158" width="100" height="16" rx="8" fill="#E2E8F0"/>
  <rect x="1050" y="154" width="140" height="24" rx="12" fill="#3B82F6" fill-opacity="0.2"/>
  <!-- kanban -->
  <rect x="64" y="216" width="360" height="488" rx="20" fill="#F8FAFC" stroke="#E2E8F0"/>
  <rect x="88" y="240" width="100" height="12" rx="6" fill="#64748B"/>
  <rect x="88" y="268" width="312" height="72" rx="14" fill="#FFFFFF" stroke="#E2E8F0"/>
  <rect x="108" y="288" width="6" height="32" rx="2" fill="#94A3B8"/>
  <rect x="126" y="290" width="200" height="10" rx="5" fill="#CBD5E1"/>
  <rect x="126" y="308" width="140" height="8" rx="4" fill="#E2E8F0"/>
  <rect x="280" y="300" width="48" height="20" rx="10" fill="#E0E7FF"/>
  <rect x="88" y="352" width="312" height="72" rx="14" fill="#FFFFFF" stroke="#E2E8F0"/>
  <rect x="108" y="372" width="6" height="32" rx="2" fill="#F59E0B"/>
  <rect x="126" y="374" width="180" height="10" rx="5" fill="#CBD5E1"/>
  <rect x="126" y="392" width="120" height="8" rx="4" fill="#E2E8F0"/>
  <rect x="88" y="436" width="312" height="72" rx="14" fill="#FFFFFF" stroke="#E2E8F0"/>
  <rect x="108" y="456" width="6" height="32" rx="2" fill="#22C55E"/>
  <rect x="126" y="458" width="220" height="10" rx="5" fill="#CBD5E1"/>
  <rect x="126" y="476" width="160" height="8" rx="4" fill="#E2E8F0"/>
  <rect x="88" y="520" width="312" height="72" rx="14" fill="#FFFBEB" stroke="#FDE68A"/>
  <rect x="108" y="540" width="6" height="32" rx="2" fill="#94A3B8"/>
  <rect x="126" y="542" width="160" height="10" rx="5" fill="#CBD5E1"/>
  <rect x="126" y="560" width="100" height="8" rx="4" fill="#E2E8F0"/>
  <rect x="440" y="216" width="360" height="488" rx="20" fill="#FFFBF5" stroke="#FED7AA"/>
  <rect x="464" y="240" width="100" height="12" rx="6" fill="#C2410C" fill-opacity="0.35"/>
  <rect x="464" y="268" width="312" height="72" rx="14" fill="#FFFFFF" stroke="#FDE68A"/>
  <rect x="484" y="288" width="6" height="32" rx="2" fill="#F59E0B"/>
  <rect x="502" y="290" width="220" height="10" rx="5" fill="#CBD5E1"/>
  <rect x="502" y="308" width="160" height="8" rx="4" fill="#E2E8F0"/>
  <rect x="464" y="352" width="312" height="72" rx="14" fill="#FFFFFF" stroke="#FDE68A"/>
  <rect x="484" y="372" width="6" height="32" rx="2" fill="#F59E0B"/>
  <rect x="502" y="374" width="200" height="10" rx="5" fill="#CBD5E1"/>
  <rect x="502" y="392" width="140" height="8" rx="4" fill="#E2E8F0"/>
  <rect x="464" y="436" width="312" height="72" rx="14" fill="#FFFFFF" stroke="#FDE68A"/>
  <rect x="484" y="456" width="6" height="32" rx="2" fill="#F59E0B"/>
  <rect x="502" y="458" width="240" height="10" rx="5" fill="#CBD5E1"/>
  <rect x="502" y="476" width="180" height="8" rx="4" fill="#E2E8F0"/>
  <rect x="816" y="216" width="400" height="488" rx="20" fill="#F0F9FF" stroke="#BAE6FD"/>
  <rect x="840" y="240" width="120" height="12" rx="6" fill="#0369A1" fill-opacity="0.35"/>
  <rect x="840" y="268" width="352" height="100" rx="16" fill="#FFFFFF" stroke="#BFDBFE"/>
  <rect x="860" y="290" width="200" height="12" rx="6" fill="#0F172A" fill-opacity="0.12"/>
  <rect x="860" y="312" width="280" height="10" rx="5" fill="#93C5FD" fill-opacity="0.35"/>
  <rect x="860" y="330" width="240" height="10" rx="5" fill="#93C5FD" fill-opacity="0.2"/>
  <rect x="860" y="348" width="120" height="24" rx="12" fill="#3B82F6" fill-opacity="0.2"/>
  <rect x="840" y="384" width="352" height="100" rx="16" fill="#FFFFFF" stroke="#BFDBFE"/>
  <rect x="860" y="406" width="180" height="12" rx="6" fill="#0F172A" fill-opacity="0.12"/>
  <rect x="860" y="428" width="300" height="10" rx="5" fill="#93C5FD" fill-opacity="0.3"/>
  <rect x="860" y="446" width="260" height="10" rx="5" fill="#93C5FD" fill-opacity="0.18"/>
  <rect x="860" y="464" width="100" height="24" rx="12" fill="#22C55E" fill-opacity="0.2"/>
  <circle cx="1180" cy="640" r="64" fill="#DBEAFE" fill-opacity="0.7"/>
</svg>
