<svg width="1280" height="800" viewBox="0 0 1280 800" fill="none" xmlns="http://www.w3.org/2000/svg">
  <rect width="1280" height="800" rx="40" fill="#F4F7FB"/>
  <rect x="44" y="44" width="1192" height="712" rx="28" fill="#FFFFFF"/>
  <rect x="84" y="92" width="462" height="620" rx="24" fill="#F8FAFC"/>
  <rect x="120" y="132" width="210" height="18" rx="9" fill="#0F172A"/>
  <rect x="120" y="172" width="382" height="12" rx="6" fill="#CBD5E1"/>
  <rect x="120" y="214" width="382" height="12" rx="6" fill="#E2E8F0"/>
  <rect x="120" y="290" width="390" height="146" rx="20" fill="#FFF4D6"/>
  <rect x="120" y="470" width="390" height="194" rx="20" fill="#E9F2FF"/>
  <rect x="580" y="92" width="616" height="620" rx="24" fill="#0F172A"/>
  <rect x="620" y="132" width="170" height="18" rx="9" fill="#F8FAFC"/>
  <rect x="620" y="180" width="280" height="12" rx="6" fill="#94A3B8"/>
  <rect x="620" y="226" width="520" height="96" rx="20" fill="#162033"/>
  <rect x="620" y="356" width="520" height="96" rx="20" fill="#162033"/>
  <rect x="620" y="486" width="520" height="96" rx="20" fill="#162033"/>
  <rect x="620" y="616" width="232" height="48" rx="24" fill="#FFF4D6"/>
</svg>
