<svg width="1280" height="800" viewBox="0 0 1280 800" fill="none" xmlns="http://www.w3.org/2000/svg">
  <rect width="1280" height="800" rx="40" fill="#EEF2FF"/>
  <rect x="40" y="40" width="1200" height="720" rx="28" fill="#FFFFFF" stroke="#E2E8F0" stroke-width="2"/>
  <rect x="64" y="64" width="1152" height="40" rx="10" fill="#F1F5F9"/>
  <circle cx="86" cy="84" r="5" fill="#FCA5A5"/>
  <circle cx="104" cy="84" r="5" fill="#FDE047"/>
  <circle cx="122" cy="84" r="5" fill="#86EFAC"/>
  <rect x="480" y="74" width="320" height="20" rx="10" fill="#CBD5E1"/>
  <!-- editor -->
  <rect x="64" y="120" width="620" height="616" rx="22" fill="#FAFAFA" stroke="#E5E7EB"/>
  <rect x="96" y="152" width="180" height="16" rx="8" fill="#1E293B"/>
  <rect x="96" y="184" width="520" height="10" rx="5" fill="#94A3B8"/>
  <rect x="96" y="206" width="480" height="10" rx="5" fill="#CBD5E1"/>
  <rect x="96" y="244" width="556" height="120" rx="16" fill="#FFFFFF" stroke="#E5E7EB"/>
  <rect x="116" y="268" width="120" height="14" rx="7" fill="#F59E0B" fill-opacity="0.35"/>
  <rect x="116" y="294" width="500" height="8" rx="4" fill="#E5E7EB"/>
  <rect x="116" y="310" width="420" height="8" rx="4" fill="#E5E7EB"/>
  <rect x="116" y="326" width="460" height="8" rx="4" fill="#E5E7EB"/>
  <rect x="96" y="384" width="556" height="100" rx="16" fill="#FFFFFF" stroke="#E5E7EB"/>
  <rect x="116" y="406" width="500" height="8" rx="4" fill="#E5E7EB"/>
  <rect x="116" y="422" width="440" height="8" rx="4" fill="#E5E7EB"/>
  <rect x="116" y="438" width="480" height="8" rx="4" fill="#E5E7EB"/>
  <rect x="96" y="500" width="556" height="100" rx="16" fill="#FFFBEB" stroke="#FCD34D"/>
  <rect x="116" y="522" width="90" height="10" rx="5" fill="#D97706" fill-opacity="0.35"/>
  <rect x="116" y="542" width="510" height="8" rx="4" fill="#FDE68A" fill-opacity="0.5"/>
  <rect x="116" y="558" width="380" height="8" rx="4" fill="#FDE68A" fill-opacity="0.35"/>
  <!-- review panel -->
  <rect x="704" y="120" width="512" height="616" rx="22" fill="#0F172A"/>
  <rect x="736" y="152" width="200" height="16" rx="8" fill="#F8FAFC"/>
  <rect x="736" y="184" width="320" height="10" rx="5" fill="#64748B"/>
  <rect x="736" y="220" width="448" height="72" rx="14" fill="#1E293B"/>
  <rect x="756" y="240" width="8" height="32" rx="2" fill="#38BDF8"/>
  <rect x="776" y="244" width="380" height="10" rx="5" fill="#475569"/>
  <rect x="776" y="262" width="300" height="8" rx="4" fill="#334155"/>
  <rect x="736" y="308" width="448" height="72" rx="14" fill="#1E293B"/>
  <rect x="756" y="328" width="8" height="32" rx="2" fill="#4ADE80"/>
  <rect x="776" y="332" width="360" height="10" rx="5" fill="#475569"/>
  <rect x="776" y="350" width="280" height="8" rx="4" fill="#334155"/>
  <rect x="736" y="396" width="448" height="72" rx="14" fill="#1E293B"/>
  <rect x="756" y="416" width="8" height="32" rx="2" fill="#A78BFA"/>
  <rect x="776" y="420" width="400" height="10" rx="5" fill="#475569"/>
  <rect x="776" y="438" width="320" height="8" rx="4" fill="#334155"/>
  <rect x="736" y="492" width="200" height="44" rx="22" fill="#FBBF24"/>
  <rect x="736" y="556" width="448" height="140" rx="18" fill="#162033"/>
  <rect x="756" y="580" width="160" height="10" rx="5" fill="#64748B"/>
  <rect x="756" y="602" width="408" height="8" rx="4" fill="#334155"/>
  <rect x="756" y="620" width="360" height="8" rx="4" fill="#334155"/>
  <rect x="756" y="638" width="400" height="8" rx="4" fill="#334155"/>
  <rect x="756" y="664" width="140" height="14" rx="7" fill="#38BDF8" fill-opacity="0.4"/>
</svg>
