<svg width="1280" height="800" viewBox="0 0 1280 800" fill="none" xmlns="http://www.w3.org/2000/svg">
  <rect width="1280" height="800" rx="40" fill="#F0FDF4"/>
  <rect x="40" y="40" width="1200" height="720" rx="28" fill="#FFFFFF" stroke="#D1FAE5" stroke-width="2"/>
  <rect x="64" y="64" width="1152" height="44" rx="12" fill="#ECFDF5"/>
  <rect x="88" y="78" width="48" height="16" rx="8" fill="#059669" fill-opacity="0.25"/>
  <rect x="148" y="76" width="220" height="20" rx="10" fill="#064E3B" fill-opacity="0.15"/>
  <rect x="980" y="72" width="200" height="32" rx="16" fill="#D1FAE5"/>
  <!-- left STAR rail -->
  <rect x="64" y="128" width="300" height="608" rx="22" fill="#F8FAFC" stroke="#E2E8F0"/>
  <rect x="88" y="160" width="140" height="12" rx="6" fill="#64748B"/>
  <rect x="88" y="196" width="252" height="56" rx="14" fill="#FFFFFF" stroke="#10B981" stroke-width="2"/>
  <rect x="108" y="216" width="24" height="24" rx="12" fill="#10B981"/>
  <rect x="144" y="220" width="160" height="10" rx="5" fill="#CBD5E1"/>
  <rect x="88" y="268" width="252" height="56" rx="14" fill="#FFFFFF" stroke="#E2E8F0"/>
  <rect x="108" y="288" width="24" height="24" rx="12" fill="#E2E8F0"/>
  <rect x="144" y="292" width="140" height="10" rx="5" fill="#CBD5E1"/>
  <rect x="88" y="340" width="252" height="56" rx="14" fill="#FFFFFF" stroke="#E2E8F0"/>
  <rect x="108" y="360" width="24" height="24" rx="12" fill="#E2E8F0"/>
  <rect x="144" y="364" width="120" height="10" rx="5" fill="#CBD5E1"/>
  <rect x="88" y="412" width="252" height="56" rx="14" fill="#FFFFFF" stroke="#E2E8F0"/>
  <rect x="108" y="432" width="24" height="24" rx="12" fill="#E2E8F0"/>
  <rect x="144" y="436" width="100" height="10" rx="5" fill="#CBD5E1"/>
  <rect x="88" y="500" width="180" height="10" rx="5" fill="#94A3B8"/>
  <rect x="88" y="526" width="252" height="8" rx="4" fill="#E2E8F0"/>
  <rect x="88" y="542" width="220" height="8" rx="4" fill="#E2E8F0"/>
  <rect x="88" y="558" width="200" height="8" rx="4" fill="#E2E8F0"/>
  <!-- main chat -->
  <rect x="384" y="128" width="832" height="608" rx="22" fill="#FAFAFA" stroke="#E5E7EB"/>
  <rect x="416" y="160" width="200" height="16" rx="8" fill="#0F172A"/>
  <rect x="416" y="192" width="360" height="10" rx="5" fill="#94A3B8"/>
  <rect x="416" y="236" width="520" height="88" rx="20" fill="#FFFFFF" stroke="#E5E7EB"/>
  <rect x="440" y="260" width="472" height="10" rx="5" fill="#E5E7EB"/>
  <rect x="440" y="280" width="400" height="10" rx="5" fill="#E5E7EB"/>
  <rect x="440" y="300" width="440" height="10" rx="5" fill="#E5E7EB"/>
  <rect x="680" y="348" width="480" height="88" rx="20" fill="#ECFDF5" stroke="#6EE7B7"/>
  <rect x="704" y="372" width="432" height="10" rx="5" fill="#A7F3D0" fill-opacity="0.5"/>
  <rect x="704" y="392" width="360" height="10" rx="5" fill="#A7F3D0" fill-opacity="0.35"/>
  <rect x="704" y="412" width="400" height="10" rx="5" fill="#A7F3D0" fill-opacity="0.25"/>
  <rect x="416" y="456" width="560" height="88" rx="20" fill="#FFFFFF" stroke="#E5E7EB"/>
  <rect x="440" y="480" width="500" height="10" rx="5" fill="#E5E7EB"/>
  <rect x="440" y="500" width="420" height="10" rx="5" fill="#E5E7EB"/>
  <rect x="440" y="520" width="460" height="10" rx="5" fill="#E5E7EB"/>
  <rect x="416" y="564" width="768" height="100" rx="18" fill="#FFFFFF" stroke="#D1D5DB"/>
  <rect x="440" y="588" width="640" height="12" rx="6" fill="#F3F4F6"/>
  <rect x="440" y="612" width="560" height="12" rx="6" fill="#F3F4F6"/>
  <rect x="1088" y="600" width="72" height="40" rx="20" fill="#059669"/>
  <!-- bottom hint -->
  <rect x="384" y="652" width="832" height="84" rx="18" fill="#FFFBEB" stroke="#FCD34D"/>
  <rect x="412" y="678" width="160" height="12" rx="6" fill="#D97706" fill-opacity="0.35"/>
  <rect x="412" y="702" width="760" height="10" rx="5" fill="#FDE68A" fill-opacity="0.45"/>
</svg>
