<svg width="1600" height="1000" viewBox="0 0 1600 1000" fill="none" xmlns="http://www.w3.org/2000/svg">
  <rect width="1600" height="1000" rx="48" fill="#F4F7FB"/>
  <rect x="60" y="60" width="1480" height="880" rx="36" fill="#FFFFFF"/>
  <rect x="112" y="110" width="304" height="780" rx="28" fill="#F7F3EB"/>
  <rect x="156" y="162" width="216" height="24" rx="12" fill="#1E293B"/>
  <rect x="156" y="222" width="112" height="14" rx="7" fill="#C6D0DC"/>
  <rect x="156" y="268" width="216" height="88" rx="20" fill="#FFF4D6"/>
  <rect x="156" y="388" width="216" height="88" rx="20" fill="#E9F2FF"/>
  <rect x="156" y="508" width="216" height="88" rx="20" fill="#E8F7EF"/>
  <rect x="156" y="628" width="216" height="200" rx="24" fill="#F8FAFC"/>
  <rect x="476" y="152" width="330" height="162" rx="28" fill="#0F172A"/>
  <rect x="510" y="188" width="176" height="20" rx="10" fill="#F8FAFC" fill-opacity="0.92"/>
  <rect x="510" y="232" width="238" height="14" rx="7" fill="#94A3B8"/>
  <rect x="510" y="268" width="144" height="14" rx="7" fill="#E2E8F0"/>
  <rect x="850" y="152" width="284" height="162" rx="28" fill="#FFF4D6"/>
  <rect x="1180" y="152" width="248" height="162" rx="28" fill="#E9F2FF"/>
  <rect x="476" y="358" width="952" height="224" rx="32" fill="#F8FAFC"/>
  <rect x="520" y="404" width="280" height="20" rx="10" fill="#1E293B"/>
  <rect x="520" y="450" width="500" height="14" rx="7" fill="#C6D0DC"/>
  <rect x="520" y="486" width="436" height="14" rx="7" fill="#E2E8F0"/>
  <rect x="1080" y="406" width="300" height="128" rx="24" fill="#FFFFFF"/>
  <rect x="476" y="626" width="610" height="224" rx="32" fill="#FFFDF8"/>
  <rect x="1128" y="626" width="300" height="224" rx="32" fill="#F6FBFF"/>
  <circle cx="1324" cy="290" r="96" fill="#DDEBFF"/>
  <circle cx="950" cy="750" r="116" fill="#E7F6EE"/>
</svg>
