<svg width="1600" height="1000" viewBox="0 0 1600 1000" fill="none" xmlns="http://www.w3.org/2000/svg">
  <defs>
    <linearGradient id="hb" x1="0" y1="0" x2="1" y2="1">
      <stop offset="0%" stop-color="#EEF2FF"/>
      <stop offset="100%" stop-color="#F4F7FB"/>
    </linearGradient>
  </defs>
  <rect width="1600" height="1000" rx="48" fill="url(#hb)"/>
  <rect x="48" y="48" width="1504" height="904" rx="32" fill="#FFFFFF" stroke="#E2E8F0" stroke-width="2"/>
  <!-- window chrome -->
  <rect x="72" y="72" width="1456" height="44" rx="12" fill="#F1F5F9"/>
  <circle cx="98" cy="94" r="6" fill="#FCA5A5"/>
  <circle cx="122" cy="94" r="6" fill="#FDE047"/>
  <circle cx="146" cy="94" r="6" fill="#86EFAC"/>
  <rect x="620" y="86" width="360" height="16" rx="8" fill="#CBD5E1"/>
  <!-- sidebar -->
  <rect x="72" y="132" width="280" height="796" rx="20" fill="#F8FAFC" stroke="#E2E8F0"/>
  <rect x="104" y="168" width="48" height="48" rx="12" fill="#0F172A"/>
  <rect x="164" y="180" width="160" height="14" rx="7" fill="#0F172A"/>
  <rect x="104" y="244" width="216" height="40" rx="10" fill="#E9F2FF"/>
  <rect x="104" y="296" width="216" height="40" rx="10" fill="#FFFFFF" stroke="#E2E8F0"/>
  <rect x="104" y="348" width="216" height="40" rx="10" fill="#FFFFFF" stroke="#E2E8F0"/>
  <rect x="104" y="400" width="216" height="40" rx="10" fill="#FFFFFF" stroke="#E2E8F0"/>
  <rect x="104" y="468" width="180" height="10" rx="5" fill="#94A3B8"/>
  <rect x="104" y="494" width="216" height="36" rx="10" fill="#FFFFFF" stroke="#E2E8F0"/>
  <rect x="104" y="542" width="216" height="36" rx="10" fill="#FFFFFF" stroke="#E2E8F0"/>
  <!-- main -->
  <rect x="376" y="132" width="1152" height="72" rx="16" fill="#0F172A"/>
  <rect x="408" y="156" width="200" height="20" rx="10" fill="#F8FAFC" fill-opacity="0.95"/>
  <rect x="624" y="162" width="280" height="12" rx="6" fill="#64748B"/>
  <rect x="1320" y="148" width="160" height="40" rx="12" fill="#FFF4D6"/>
  <!-- stat row -->
  <rect x="376" y="224" width="268" height="140" rx="20" fill="#FFF4D6" stroke="#FDE68A"/>
  <rect x="408" y="256" width="100" height="12" rx="6" fill="#B45309" fill-opacity="0.35"/>
  <rect x="408" y="284" width="160" height="28" rx="8" fill="#0F172A" fill-opacity="0.15"/>
  <rect x="664" y="224" width="268" height="140" rx="20" fill="#E9F2FF" stroke="#BFDBFE"/>
  <rect x="696" y="256" width="100" height="12" rx="6" fill="#1D4ED8" fill-opacity="0.25"/>
  <rect x="696" y="284" width="140" height="28" rx="8" fill="#0F172A" fill-opacity="0.12"/>
  <rect x="952" y="224" width="268" height="140" rx="20" fill="#E8F7EF" stroke="#A7F3D0"/>
  <rect x="984" y="256" width="100" height="12" rx="6" fill="#047857" fill-opacity="0.3"/>
  <rect x="984" y="284" width="120" height="28" rx="8" fill="#0F172A" fill-opacity="0.12"/>
  <rect x="1240" y="224" width="288" height="140" rx="20" fill="#F1F5F9" stroke="#E2E8F0"/>
  <rect x="1272" y="256" width="120" height="12" rx="6" fill="#64748B"/>
  <rect x="1272" y="284" width="180" height="28" rx="8" fill="#CBD5E1"/>
  <!-- list + detail -->
  <rect x="376" y="388" width="720" height="540" rx="24" fill="#F8FAFC" stroke="#E2E8F0"/>
  <rect x="408" y="424" width="240" height="18" rx="9" fill="#0F172A"/>
  <rect x="408" y="458" width="400" height="12" rx="6" fill="#94A3B8"/>
  <rect x="408" y="494" width="656" height="56" rx="14" fill="#FFFFFF" stroke="#E2E8F0"/>
  <rect x="428" y="512" width="8" height="20" rx="2" fill="#3B82F6"/>
  <rect x="452" y="514" width="360" height="10" rx="5" fill="#CBD5E1"/>
  <rect x="452" y="530" width="240" height="8" rx="4" fill="#E2E8F0"/>
  <rect x="408" y="566" width="656" height="56" rx="14" fill="#FFFFFF" stroke="#E2E8F0"/>
  <rect x="428" y="584" width="8" height="20" rx="2" fill="#EAB308"/>
  <rect x="452" y="586" width="320" height="10" rx="5" fill="#CBD5E1"/>
  <rect x="452" y="602" width="200" height="8" rx="4" fill="#E2E8F0"/>
  <rect x="408" y="638" width="656" height="56" rx="14" fill="#FFFFFF" stroke="#E2E8F0"/>
  <rect x="428" y="656" width="8" height="20" rx="2" fill="#22C55E"/>
  <rect x="452" y="658" width="400" height="10" rx="5" fill="#CBD5E1"/>
  <rect x="452" y="674" width="280" height="8" rx="4" fill="#E2E8F0"/>
  <rect x="408" y="710" width="656" height="56" rx="14" fill="#FFFFFF" stroke="#E2E8F0"/>
  <rect x="428" y="728" width="8" height="20" rx="2" fill="#94A3B8"/>
  <rect x="452" y="730" width="300" height="10" rx="5" fill="#CBD5E1"/>
  <rect x="452" y="746" width="220" height="8" rx="4" fill="#E2E8F0"/>
  <rect x="408" y="782" width="656" height="56" rx="14" fill="#FFFFFF" stroke="#E2E8F0"/>
  <rect x="428" y="800" width="8" height="20" rx="2" fill="#94A3B8"/>
  <rect x="452" y="802" width="340" height="10" rx="5" fill="#CBD5E1"/>
  <rect x="452" y="818" width="260" height="8" rx="4" fill="#E2E8F0"/>
  <!-- right panel -->
  <rect x="1120" y="388" width="408" height="260" rx="24" fill="#FFFFFF" stroke="#E2E8F0"/>
  <rect x="1152" y="420" width="160" height="14" rx="7" fill="#0F172A"/>
  <rect x="1152" y="448" width="280" height="10" rx="5" fill="#CBD5E1"/>
  <rect x="1152" y="478" width="344" height="72" rx="16" fill="#FFFDF8" stroke="#FDE68A"/>
  <rect x="1172" y="498" width="304" height="8" rx="4" fill="#FDE68A" fill-opacity="0.5"/>
  <rect x="1172" y="516" width="240" height="8" rx="4" fill="#FDE68A" fill-opacity="0.35"/>
  <rect x="1152" y="566" width="120" height="36" rx="18" fill="#0F172A"/>
  <rect x="1120" y="668" width="408" height="260" rx="24" fill="#F6FBFF" stroke="#BFDBFE"/>
  <rect x="1152" y="700" width="140" height="14" rx="7" fill="#0F172A"/>
  <rect x="1152" y="732" width="344" height="12" rx="6" fill="#93C5FD" fill-opacity="0.4"/>
  <rect x="1152" y="756" width="300" height="12" rx="6" fill="#93C5FD" fill-opacity="0.25"/>
  <rect x="1152" y="780" width="320" height="12" rx="6" fill="#93C5FD" fill-opacity="0.2"/>
  <rect x="1152" y="812" width="200" height="36" rx="18" fill="#3B82F6" fill-opacity="0.25"/>
  <!-- decorative -->
  <circle cx="1460" cy="880" r="72" fill="#DBEAFE" fill-opacity="0.6"/>
  <circle cx="320" cy="860" r="56" fill="#D1FAE5" fill-opacity="0.5"/>
</svg>
