<svg width="1280" height="800" viewBox="0 0 1280 800" fill="none" xmlns="http://www.w3.org/2000/svg">
  <rect width="1280" height="800" rx="40" fill="#FAF5FF"/>
  <rect x="40" y="40" width="1200" height="720" rx="28" fill="#FFFFFF" stroke="#E9D5FF" stroke-width="2"/>
  <!-- sidebar -->
  <rect x="64" y="64" width="320" height="672" rx="22" fill="#FAFAFA" stroke="#E5E7EB"/>
  <rect x="88" y="88" width="56" height="56" rx="16" fill="#7C3AED"/>
  <rect x="156" y="100" width="160" height="18" rx="9" fill="#1E293B"/>
  <rect x="156" y="126" width="200" height="10" rx="5" fill="#A78BFA" fill-opacity="0.35"/>
  <rect x="88" y="176" width="272" height="36" rx="10" fill="#EDE9FE"/>
  <rect x="88" y="228" width="272" height="36" rx="10" fill="#FFFFFF" stroke="#E5E7EB"/>
  <rect x="88" y="280" width="272" height="36" rx="10" fill="#FFFFFF" stroke="#E5E7EB"/>
  <rect x="88" y="332" width="272" height="36" rx="10" fill="#FFFFFF" stroke="#E5E7EB"/>
  <rect x="88" y="400" width="120" height="10" rx="5" fill="#94A3B8"/>
  <rect x="88" y="426" width="272" height="8" rx="4" fill="#E5E7EB"/>
  <rect x="88" y="442" width="240" height="8" rx="4" fill="#E5E7EB"/>
  <rect x="88" y="458" width="200" height="8" rx="4" fill="#E5E7EB"/>
  <!-- main -->
  <rect x="408" y="64" width="808" height="672" rx="22" fill="#F8FAFC" stroke="#E2E8F0"/>
  <rect x="440" y="96" width="240" height="16" rx="8" fill="#0F172A"/>
  <rect x="440" y="128" width="400" height="10" rx="5" fill="#94A3B8"/>
  <!-- assistant bubble -->
  <rect x="440" y="168" width="520" height="100" rx="24" fill="#FFFFFF" stroke="#E5E7EB"/>
  <rect x="468" y="192" width="48" height="48" rx="24" fill="#DDD6FE"/>
  <rect x="532" y="200" width="400" height="10" rx="5" fill="#CBD5E1"/>
  <rect x="532" y="220" width="340" height="10" rx="5" fill="#E2E8F0"/>
  <rect x="532" y="240" width="280" height="10" rx="5" fill="#E2E8F0"/>
  <!-- user bubble -->
  <rect x="560" y="292" width="600" height="88" rx="24" fill="#EDE9FE" stroke="#C4B5FD"/>
  <rect x="588" y="316" width="520" height="10" rx="5" fill="#7C3AED" fill-opacity="0.25"/>
  <rect x="588" y="336" width="440" height="10" rx="5" fill="#7C3AED" fill-opacity="0.18"/>
  <rect x="588" y="356" width="360" height="10" rx="5" fill="#7C3AED" fill-opacity="0.12"/>
  <!-- assistant bubble 2 -->
  <rect x="440" y="404" width="560" height="120" rx="24" fill="#FFFFFF" stroke="#E5E7EB"/>
  <rect x="468" y="428" width="48" height="48" rx="24" fill="#DDD6FE"/>
  <rect x="532" y="436" width="440" height="10" rx="5" fill="#CBD5E1"/>
  <rect x="532" y="456" width="480" height="10" rx="5" fill="#E2E8F0"/>
  <rect x="532" y="476" width="400" height="10" rx="5" fill="#E2E8F0"/>
  <rect x="532" y="496" width="320" height="10" rx="5" fill="#E2E8F0"/>
  <!-- composer -->
  <rect x="440" y="556" width="744" height="140" rx="20" fill="#FFFFFF" stroke="#D1D5DB"/>
  <rect x="468" y="584" width="620" height="14" rx="7" fill="#F3F4F6"/>
  <rect x="468" y="608" width="560" height="14" rx="7" fill="#F3F4F6"/>
  <rect x="468" y="632" width="480" height="14" rx="7" fill="#F3F4F6"/>
  <rect x="1048" y="612" width="112" height="44" rx="22" fill="#7C3AED"/>
  <rect x="440" y="612" width="88" height="44" rx="22" fill="#F3F4F6" stroke="#E5E7EB"/>
</svg>
