<svg width="1600" height="1000" viewBox="0 0 1600 1000" fill="none" xmlns="http://www.w3.org/2000/svg">
  <rect width="1600" height="1000" rx="40" fill="#F6F6F1"/>
  <rect x="40" y="40" width="1520" height="920" rx="28" fill="#FCFCFA" stroke="#DBDEE8"/>
  <rect x="76" y="84" width="220" height="832" rx="24" fill="#F0F2F7"/>
  <rect x="108" y="122" width="120" height="18" rx="9" fill="#2E3E73" fill-opacity="0.25"/>
  <rect x="108" y="174" width="156" height="62" rx="18" fill="#FFFFFF" stroke="#D9DDE8"/>
  <rect x="108" y="266" width="156" height="62" rx="18" fill="#FFFFFF" stroke="#D9DDE8"/>
  <rect x="108" y="358" width="156" height="62" rx="18" fill="#FFFFFF" stroke="#D9DDE8"/>
  <rect x="332" y="84" width="748" height="832" rx="28" fill="#FFFFFF" stroke="#D9DDE8"/>
  <rect x="380" y="128" width="220" height="22" rx="11" fill="#2E3E73"/>
  <rect x="380" y="170" width="420" height="14" rx="7" fill="#2E3E73" fill-opacity="0.2"/>
  <rect x="380" y="228" width="652" height="124" rx="24" fill="#FFF8EC" stroke="#E8D8B6"/>
  <rect x="412" y="260" width="188" height="16" rx="8" fill="#B06E1C"/>
  <rect x="412" y="294" width="572" height="12" rx="6" fill="#B06E1C" fill-opacity="0.22"/>
  <rect x="412" y="320" width="520" height="12" rx="6" fill="#B06E1C" fill-opacity="0.16"/>
  <rect x="380" y="390" width="300" height="208" rx="24" fill="#F2F4FA" stroke="#D9DDE8"/>
  <rect x="412" y="426" width="168" height="16" rx="8" fill="#2E3E73"/>
  <rect x="412" y="464" width="220" height="12" rx="6" fill="#2E3E73" fill-opacity="0.18"/>
  <rect x="412" y="498" width="220" height="12" rx="6" fill="#2E3E73" fill-opacity="0.18"/>
  <rect x="412" y="536" width="180" height="36" rx="18" fill="#2E3E73"/>
  <rect x="716" y="390" width="316" height="208" rx="24" fill="#FFFFFF" stroke="#D9DDE8"/>
  <rect x="748" y="426" width="184" height="16" rx="8" fill="#2E3E73"/>
  <rect x="748" y="470" width="236" height="46" rx="18" fill="#F2F4FA"/>
  <rect x="748" y="532" width="236" height="46" rx="18" fill="#F2F4FA"/>
  <rect x="380" y="636" width="652" height="232" rx="24" fill="#F8F9FD" stroke="#D9DDE8"/>
  <rect x="412" y="676" width="178" height="16" rx="8" fill="#2E3E73"/>
  <rect x="412" y="720" width="560" height="14" rx="7" fill="#2E3E73" fill-opacity="0.16"/>
  <rect x="412" y="752" width="506" height="14" rx="7" fill="#2E3E73" fill-opacity="0.16"/>
  <rect x="412" y="784" width="528" height="14" rx="7" fill="#2E3E73" fill-opacity="0.16"/>
  <rect x="412" y="820" width="146" height="32" rx="16" fill="#B06E1C"/>
  <rect x="1116" y="84" width="408" height="832" rx="28" fill="#F8F9FD" stroke="#D9DDE8"/>
  <rect x="1152" y="128" width="180" height="18" rx="9" fill="#2E3E73"/>
  <rect x="1152" y="176" width="324" height="112" rx="24" fill="#FFFFFF" stroke="#D9DDE8"/>
  <circle cx="1194" cy="216" r="18" fill="#B06E1C" fill-opacity="0.18"/>
  <rect x="1228" y="198" width="198" height="12" rx="6" fill="#2E3E73" fill-opacity="0.24"/>
  <rect x="1228" y="224" width="160" height="12" rx="6" fill="#2E3E73" fill-opacity="0.16"/>
  <rect x="1152" y="318" width="324" height="168" rx="24" fill="#FFFFFF" stroke="#D9DDE8"/>
  <rect x="1184" y="354" width="128" height="12" rx="6" fill="#2E3E73" fill-opacity="0.24"/>
  <rect x="1184" y="384" width="244" height="12" rx="6" fill="#2E3E73" fill-opacity="0.16"/>
  <rect x="1184" y="414" width="228" height="12" rx="6" fill="#2E3E73" fill-opacity="0.16"/>
  <rect x="1184" y="450" width="120" height="28" rx="14" fill="#2E3E73"/>
  <rect x="1152" y="518" width="324" height="138" rx="24" fill="#FFF8EC" stroke="#E8D8B6"/>
  <rect x="1184" y="554" width="162" height="12" rx="6" fill="#B06E1C" fill-opacity="0.9"/>
  <rect x="1184" y="586" width="244" height="12" rx="6" fill="#B06E1C" fill-opacity="0.22"/>
  <rect x="1184" y="616" width="192" height="12" rx="6" fill="#B06E1C" fill-opacity="0.16"/>
  <rect x="1152" y="688" width="324" height="180" rx="24" fill="#FFFFFF" stroke="#D9DDE8"/>
  <rect x="1184" y="724" width="214" height="12" rx="6" fill="#2E3E73" fill-opacity="0.24"/>
  <rect x="1184" y="756" width="244" height="48" rx="20" fill="#F0F2F7"/>
  <rect x="1184" y="820" width="120" height="28" rx="14" fill="#B06E1C"/>
</svg>
